# xmcd
#
# Track frame offsets:
#	150
#	12404
#	27296
#	41743
#	54738
#	67845
#	78211
#	92037
#	104720
#	124119
#	144154
#	157570
#	173433
#	183208
#	194413
#	207949
#	223287
#
# Disc length: 3164 seconds
#
# Revision: 1
# Processed by: cddbd v1.5.2PL0 Copyright (c) Steve Scherf et al.
# Submitted via: audiograbber 1.83.01
#
DISCID=e10c5a11
DTITLE=M T M - M T M 023
DYEAR=2007
DGENRE=Country
TTITLE0=Quater Over You  - Danni Leigh
TTITLE1=Slow Train  - Bradley West
TTITLE2=Slow Like Quicksand  - John Foster
TTITLE3=Rio Grande Rodeo Night  - John Arthur Martinez
TTITLE4=She Moves Me  - Chase Tyler
TTITLE5=Through Hell With You - Billy Chernoff
TTITLE6=Best To You In Texas  - Razzy Bailey
TTITLE7=Romance Rodeo  - Face 2 Face
TTITLE8=Swimming Hole  - Jim Christaldi
TTITLE9=Louise  - Ray William Roldan
TTITLE10=This Old Truck - Chris Gilburg
TTITLE11=Where´s The Kids Gone  - Patrick Riley 
TTITLE12=Bus Stop  - Sylvia
TTITLE13=Emotionally Bankrupt - The Tin Ridge Band
TTITLE14=Battle Of Hill 48  - Walter Hammond
TTITLE15=Only One You  - Rachel Lilliott
TTITLE16=Next Week-end  - Codie Prevost
EXTD=
EXTT0=
EXTT1=
EXTT2=
EXTT3=
EXTT4=
EXTT5=
EXTT6=
EXTT7=
EXTT8=
EXTT9=
EXTT10=
EXTT11=
EXTT12=
EXTT13=
EXTT14=
EXTT15=
EXTT16=
PLAYORDER=
